<svg xmlns="http://www.w3.org/2000/svg" xmlns:xlink="http://www.w3.org/1999/xlink" preserveAspectRatio="xMidYMid" width="10" height="48" viewBox="19 0 10 48">
  <defs>
    <style>
      .cls-1 {
        fill: #4e636d;
        fill-rule: evenodd;
      }
    </style>
  </defs>
  <path d="M25.000,26.000 C24.448,26.000 24.000,25.552 24.000,25.000 C24.000,24.448 24.448,24.000 25.000,24.000 C25.552,24.000 26.000,24.448 26.000,25.000 C26.000,25.552 25.552,26.000 25.000,26.000 ZM25.000,19.000 C24.448,19.000 24.000,18.552 24.000,18.000 C24.000,17.448 24.448,17.000 25.000,17.000 C25.552,17.000 26.000,17.448 26.000,18.000 C26.000,18.552 25.552,19.000 25.000,19.000 ZM25.000,31.000 C25.552,31.000 26.000,31.448 26.000,32.000 C26.000,32.552 25.552,33.000 25.000,33.000 C24.448,33.000 24.000,32.552 24.000,32.000 C24.000,31.448 24.448,31.000 25.000,31.000 Z" class="cls-1"/>
</svg>
